<svg width="40" height="40" viewBox="0 0 324 320" fill="none" xmlns="http://www.w3.org/2000/svg">
<path d="M164.349 320C161.864 320 159.38 318.586 157.96 316.111C156.895 313.635 156.895 311.16 158.67 309.039L234.277 205.436L101.875 259.182C100.81 259.536 100.1 259.889 99.0355 259.889C95.8409 259.889 93.001 257.768 92.2911 254.939C91.2262 252.11 92.646 248.928 95.1308 247.16L211.56 178.917L6.74444 167.249C2.48485 166.895 0 163.713 0 160.177C0 156.994 2.12988 153.459 6.74444 153.105L211.56 141.436L95.1308 73.1934C92.646 71.4254 91.2262 68.2431 92.2911 65.4144C93.356 62.5856 95.8409 60.4641 99.0355 60.4641C100.1 60.4641 100.81 60.8177 101.875 61.1713L234.277 114.917L158.67 10.9613C157.25 8.83978 156.895 6.01105 157.96 3.8895C159.025 1.41436 161.509 0 164.349 0C166.124 0 167.899 0.707182 169.319 2.12155L319.824 151.691C321.954 153.812 323.019 156.994 323.019 159.823C323.019 162.652 321.954 165.481 319.824 167.956L169.319 317.878C167.899 319.293 166.124 320 164.349 320Z" fill="#282828"/>
</svg>
