<svg height="80" width="81" viewBox="0 0 81 80" fill="none" xmlns="http://www.w3.org/2000/svg">
    <path d="M2.81 14.12L5.64 11.29L8.17 10.79C11.39 6.40997 17.55 4.21997 19.78 4.21997C19.78 6.44997 17.59 12.61 13.21 15.83L12.71 18.36L9.88 21.19L9.17 17.66C7.76 17.66 7.76 17.66 7.05 16.95C6.34 16.24 6.34 16.24 6.34 14.83L2.81 14.12ZM5.64 16.95L7.05 18.36L4.39 21.03H2.97V19.61L5.64 16.95ZM4.22 15.54L5.46 15.71L3 18.16V16.74L4.22 15.54ZM8.29 18.54L8.46 19.78L7.26 21H5.84L8.29 18.54ZM13 9.49997C12.6022 9.49997 12.2206 9.65801 11.9393 9.93931C11.658 10.2206 11.5 10.6021 11.5 11C11.5 11.3978 11.658 11.7793 11.9393 12.0606C12.2206 12.3419 12.6022 12.5 13 12.5C13.3978 12.5 13.7794 12.3419 14.0607 12.0606C14.342 11.7793 14.5 11.3978 14.5 11C14.5 10.6021 14.342 10.2206 14.0607 9.93931C13.7794 9.65801 13.3978 9.49997 13 9.49997Z"
          fill="black"/>
</svg>