<?xml version="1.0" encoding="UTF-8" standalone="no"?>
<svg
        xmlns:dc="http://purl.org/dc/elements/1.1/"
        xmlns:cc="http://creativecommons.org/ns#"
        xmlns:rdf="http://www.w3.org/1999/02/22-rdf-syntax-ns#"
        xmlns="http://www.w3.org/2000/svg"
        xmlns:sodipodi="http://sodipodi.sourceforge.net/DTD/sodipodi-0.dtd"
        xmlns:inkscape="http://www.inkscape.org/namespaces/inkscape"
        viewBox="0 0 40 40"
        version="1.1"
        id="svg1193"
        sodipodi:docname="pluginIcon_dark.svg"
        inkscape:version="1.0.1 (c497b03c, 2020-09-10)">
    <metadata
            id="metadata1197">
        <rdf:RDF>
            <cc:Work
                    rdf:about="">
                <dc:format>image/svg+xml</dc:format>
                <dc:type
                        rdf:resource="http://purl.org/dc/dcmitype/StillImage"/>
                <dc:title>LaunchDarkly_Icon_on_Dark_RGB</dc:title>
            </cc:Work>
        </rdf:RDF>
    </metadata>
    <sodipodi:namedview
            pagecolor="#ffffff"
            bordercolor="#666666"
            borderopacity="1"
            objecttolerance="10"
            gridtolerance="10"
            guidetolerance="10"
            inkscape:pageopacity="0"
            inkscape:pageshadow="2"
            inkscape:window-width="1481"
            inkscape:window-height="998"
            id="namedview1195"
            showgrid="false"
            inkscape:zoom="3.1144068"
            inkscape:cx="134.55"
            inkscape:cy="118"
            inkscape:window-x="0"
            inkscape:window-y="0"
            inkscape:window-maximized="0"
            inkscape:current-layer="Layer_1-2"/>
    <defs
            id="defs1174">
        <style
                id="style1172">.cls-1{fill:#fff;fill-rule:evenodd;}
        </style>
    </defs>
    <title
            id="title1176">LaunchDarkly_Icon_on_Dark_RGB
    </title>
    <g
            id="Layer_2"
            data-name="Layer 2">
        <g
                id="Layer_1-2"
                data-name="Layer 1">
            <g
                    id="Mark"
                    transform="scale(0.14805967,0.14965986)">
                <path
                        class="cls-1"
                        d="m 130.1,236 c 62.9,0 114.1,-52.9 114.1,-118 a 125.68,125.68 0 0 0 -1.5,-18.4 c 0.1,2 0.3,4.1 0.3,6 0,57 -44.8,103.3 -99.9,103.3 A 97,97 0 0 1 81,186.5 c -7.8,6.6 -13.3,11.6 -29.3,16.8 20.3,19.9 48.2,32.7 78.4,32.7 z"
                        id="path1178"/>
                <path
                        class="cls-1"
                        d="M 43.1,105.6 C 43.1,48.6 87.9,2.3 143,2.3 A 108.46,108.46 0 0 1 156.9,3.4 110.79,110.79 0 0 0 130,0 C 67.1,0 15.9,52.9 15.9,118 a 133.49,133.49 0 0 0 7.6,43.3 c 6.9,-7.2 18.4,-14.9 25.9,-18.7 -4.5,-11.7 -6.3,-23.5 -6.3,-37 z"
                        id="path1180"/>
                <path
                        class="cls-1"
                        d="m 110.2,86.5 c -20.1,-7.1 -39.5,-1.4 -48.6,2.2 14.3,7.5 23.2,16.4 28.8,24.3 5.5,-8.2 17.9,-24.1 19.8,-26.5 z"
                        id="path1182"/>
                <path
                        class="cls-1"
                        d="m 150,144.9 a 79.41,79.41 0 0 0 -1,-8 177.47,177.47 0 0 1 -21.5,12.9 c -1.2,0.6 -2.4,1.2 -3.7,1.8 -2.1,1 -4.2,2 -6.4,2.9 -0.4,0.2 -0.9,0.4 -1.3,0.6 0.3,0.8 0.7,1.7 1.1,2.7 0.3,0.8 0.7,1.7 1,2.7 0.3,0.8 0.6,1.7 0.9,2.6 a 49.51,49.51 0 0 1 1.7,5.4 l 0.9,3.3 c 0.3,1.1 0.5,2.2 0.8,3.3 a 87.82,87.82 0 0 1 2.4,19.7 c 0,1.5 -0.3,3.1 -0.4,4.6 A 59.18,59.18 0 0 0 150,151 v -1.3 a 10.87,10.87 0 0 0 -0.1,-1.8 7.45,7.45 0 0 0 0.1,-3 z"
                        id="path1184"/>
                <path
                        class="cls-1"
                        d="m 254.6,16 v 0 a 84.6,84.6 0 0 1 14.5,2.5 c -22.8,58.9 -66.4,93.6 -99.3,112.3 -4.1,2.3 -7.1,3.9 -11,5.9 -0.3,-2.9 -1.5,-10 -2.4,-14.4 a 1.39,1.39 0 0 0 -2.2,-0.8 216.6,216.6 0 0 1 -48.8,27.9 2.27,2.27 0 0 0 -1.2,3.1 c 0.6,1.2 1.3,2.7 1.9,4 -4.5,1.1 -9.4,2.3 -10.7,2.7 -1.2,-6.4 -5.9,-14.7 -10.9,-18.4 1.6,-3 5.1,-8.9 7.6,-12.9 0.6,-0.9 1.2,-1.9 1.8,-2.9 0.6,-1 1.2,-1.8 1.8,-2.8 a 380.67,380.67 0 0 1 23.5,-31.7 c 0.6,-0.8 1.2,-1.5 1.9,-2.3 0.7,-0.8 1.2,-1.5 1.9,-2.2 18.3,-21.5 40.9,-43.2 63.9,-55.5 a 125.27,125.27 0 0 1 47.6,-14.4 c -3.3,6 -9.3,14.2 -19.8,24 a 1.56,1.56 0 0 0 -0.6,0.8 6.71,6.71 0 0 0 -0.6,2.8 c 0,3.1 2.2,6.3 4.8,8.5 4,3.2 8.4,3.8 11.1,1.3 l 0.8,-0.7 c 12.6,-10.6 20.7,-23 24.4,-36.8 z m -96.5,96.8 v 0 a 10.51,10.51 0 1 0 -10.1,-10.5 10.29,10.29 0 0 0 10.1,10.5 z m 22.7,-17.6 a 10.51,10.51 0 1 1 10.1,-10.5 10.29,10.29 0 0 1 -10.1,10.5 z m 21.7,-17.5 a 10.51,10.51 0 1 1 10.1,-10.5 10.29,10.29 0 0 1 -10.1,10.5 z"
                        id="path1186"/>
                <path
                        class="cls-1"
                        d="m 75.3,147 c 5.6,0.4 10.8,11 10.6,13.7 -0.2,3.5 -1.6,9.4 -11.6,19 -0.1,0.1 -0.2,0.1 -0.2,0.2 l -0.2,0.2 c -7.7,7.3 -18.4,12.2 -29.6,15.6 -0.1,0 -0.2,0.1 -0.3,0.1 -0.1,0 -0.2,0 -0.2,0.1 -17.1,5 -34.9,6.3 -43.8,6.7 a 272.05,272.05 0 0 1 27.7,-31.4 l 0.2,-0.2 0.2,-0.2 c 10.1,-9.6 18.7,-15.4 25.6,-18.9 0.1,0 0.1,-0.1 0.2,-0.1 0.1,0 0.2,-0.1 0.3,-0.1 11.7,-5.8 18.7,-5 21,-4.5 0,-0.2 0,-0.2 0.1,-0.2 m -1,11.5 v 0 a 11,11 0 0 0 2.6,-2.7 c 0.1,-0.5 -0.5,-0.9 -1.2,-1.8 -3.7,-4.7 -16.3,0.1 -22,3.4 -10,5.9 -18.9,15.6 -22.1,20 -0.1,0.1 -0.1,0.2 -0.2,0.3 a 0.22,0.22 0 0 1 -0.2,0.2 c -0.7,1 -1.1,1.5 -1.1,1.5 l 1.2,-1.2 0.2,-0.2 0.2,-0.2 c 4.2,-3.9 15.5,-13.9 23.9,-16.3 0.9,-0.2 -5.1,15 -5.1,15 0,0 12.8,-9.4 12.9,-9.5 2.1,-1.6 4.2,-3.2 6.1,-4.7 0.8,-0.6 1.6,-1.2 2.3,-1.8 0.9,-0.7 1.8,-1.4 2.5,-2 z"
                        id="path1188"/>
            </g>
        </g>
    </g>
</svg>
