<svg width="13" height="13" viewBox="0 0 13 13" fill="none" xmlns="http://www.w3.org/2000/svg">
    <path d="M1.52208 7.64834L3.055 6.11543L4.42541 5.84459C6.16958 3.47208 9.50625 2.28583 10.7142 2.28583C10.7142 3.49374 9.52791 6.83043 7.15541 8.57459L6.88458 9.94501L5.35166 11.4779L4.96708 9.56584C4.20333 9.56584 4.20333 9.56584 3.81875 9.18126C3.43416 8.79668 3.43416 8.79668 3.43416 8.03293L1.52208 7.64834ZM3.055 9.18126L3.81875 9.94501L2.37791 11.3913H1.60875V10.6221L3.055 9.18126ZM2.28583 8.41751L2.9575 8.50959L1.625 9.83668V9.06751L2.28583 8.41751ZM4.49041 10.0425L4.5825 10.7142L3.9325 11.375H3.16333L4.49041 10.0425ZM7.04166 5.14583C6.82619 5.14583 6.61949 5.23143 6.46712 5.3838C6.31475 5.53617 6.22916 5.74281 6.22916 5.95834C6.22916 6.17382 6.31475 6.38046 6.46712 6.53284C6.61949 6.68521 6.82619 6.77084 7.04166 6.77084C7.25714 6.77084 7.46384 6.68521 7.61621 6.53284C7.76858 6.38046 7.85416 6.17382 7.85416 5.95834C7.85416 5.74281 7.76858 5.53617 7.61621 5.3838C7.46384 5.23143 7.25714 5.14583 7.04166 5.14583Z"
          fill="white"/>
</svg>