<svg width="13" height="7" viewBox="0 0 13 7" fill="none" xmlns="http://www.w3.org/2000/svg">
    <g clip-path="url(#clip0)">
        <path d="M3.52083 5.14583C4.56787 5.14583 5.41667 4.29704 5.41667 3.25C5.41667 2.20296 4.56787 1.35417 3.52083 1.35417C2.47379 1.35417 1.625 2.20296 1.625 3.25C1.625 4.29704 2.47379 5.14583 3.52083 5.14583Z"
              fill="white"/>
        <path fill-rule="evenodd" clip-rule="evenodd"
              d="M9.8913 0H3.1087C1.39181 0 0 1.45507 0 3.25C0 5.04493 1.39181 6.5 3.1087 6.5H9.8913C11.6082 6.5 13 5.04493 13 3.25C13 1.45507 11.6082 0 9.8913 0ZM3.1087 0.8125H9.8913C11.1258 0.8125 12.1875 1.86939 12.1875 3.25C12.1875 4.63061 11.1258 5.6875 9.8913 5.6875H3.1087C1.8742 5.6875 0.8125 4.63061 0.8125 3.25C0.8125 1.86939 1.8742 0.8125 3.1087 0.8125Z"
              fill="white"/>
    </g>
    <defs>
        <clipPath id="clip0">
            <rect width="13" height="6.5" fill="white"/>
        </clipPath>
    </defs>
</svg>
